<?xml version="1.0" encoding="iso-8859-1"?>
<!-- Uploaded to: SVG Repo, www.svgrepo.com, Generator: SVG Repo Mixer Tools -->
<svg fill="#000000" height="800px" width="800px" version="1.1" id="Layer_1" xmlns="http://www.w3.org/2000/svg" xmlns:xlink="http://www.w3.org/1999/xlink" 
	 viewBox="0 0 512.001 512.001" xml:space="preserve">
<g>
	<g>
		<path d="M338.19,367.334c3.289-3.231,3.337-8.515,0.107-11.804c-3.23-3.289-8.515-3.338-11.804-0.107l-56.476,55.468
			l-56.476-55.468c-3.29-3.23-8.574-3.182-11.804,0.107c-3.23,3.289-3.182,8.574,0.107,11.804l59.826,58.758v69.216H157.053v-96.703
			c0-18.794,9.608-35.848,25.7-45.618c3.941-2.393,5.195-7.527,2.803-11.467c-2.392-3.941-7.526-5.196-11.467-2.803
			c-21.121,12.823-33.731,35.211-33.731,59.888v105.05c0,4.61,3.737,8.347,8.347,8.347h179.005c4.61,0,8.347-3.737,8.347-8.347
			s-3.738-8.347-8.348-8.347h-49.348v-69.216L338.19,367.334z"/>
	</g>
</g>
<g>
	<g>
		<path d="M365.931,338.715c-3.941-2.392-9.074-1.136-11.467,2.804c-2.392,3.941-1.136,9.075,2.803,11.467
			c16.1,9.774,25.711,26.827,25.711,45.618v96.703h-27.445c-4.61,0-8.347,3.737-8.347,8.347s3.737,8.347,8.347,8.347h35.792
			c4.61,0,8.347-3.737,8.347-8.347v-105.05C399.673,373.93,387.059,351.542,365.931,338.715z"/>
	</g>
</g>
<g>
	<g>
		<path d="M220.467,206.733c-4.61,0-8.347,3.737-8.347,8.347v13.351c0,4.61,3.737,8.347,8.347,8.347s8.347-3.737,8.347-8.347V215.08
			C228.814,210.47,225.077,206.733,220.467,206.733z"/>
	</g>
</g>
<g>
	<g>
		<path d="M344.541,183.024c-13.776-13.778-36.194-13.778-49.971,0c-3.26,3.26-3.26,8.545,0,11.804c3.26,3.26,8.545,3.26,11.804,0
			c7.268-7.267,19.094-7.269,26.363,0c1.629,1.629,3.766,2.445,5.902,2.445s4.273-0.815,5.902-2.445
			C347.801,191.568,347.801,186.283,344.541,183.024z"/>
	</g>
</g>
<g>
	<g>
		<path d="M319.557,206.733c-4.61,0-8.347,3.737-8.347,8.347v13.351c0,4.61,3.737,8.347,8.347,8.347s8.347-3.737,8.347-8.347V215.08
			C327.904,210.47,324.167,206.733,319.557,206.733z"/>
	</g>
</g>
<g>
	<g>
		<path d="M452.104,247.553c-4.271-0.735-8.402,1.928-9.493,6.127c-1.238,4.761-5.536,8.088-10.453,8.088
			c-2.691,0-5.274-1.004-7.274-2.829c-1.988-1.812-3.219-4.294-3.467-6.98l-8.269-90.259c-3.14-34.303-18.312-65.992-42.89-89.874
			L385.97,32.14c1.697-4.286-0.402-9.136-4.688-10.833c-71.75-28.408-150.782-28.409-222.535,0
			c-2.059,0.815-3.709,2.414-4.589,4.446c-0.879,2.031-0.915,4.329-0.1,6.388l15.709,39.679
			c-24.565,23.904-39.75,55.639-42.887,89.881l-8.269,90.26c-0.512,5.591-5.13,9.808-10.741,9.808c-2.417,0-4.701-0.78-6.608-2.258
			c-1.884-1.46-3.249-3.526-3.842-5.82c-1.086-4.202-5.212-6.865-9.49-6.138c-4.278,0.733-7.281,4.622-6.907,8.947
			c0.162,1.883,4.356,46.349,36.342,66.972c10.41,6.712,22.39,10.07,35.83,10.07c9.93,0,20.661-1.846,32.138-5.513l13.459,9.779
			c0.181,0.148,0.374,0.281,0.569,0.413l28.185,20.481c12.7,9.227,27.578,13.841,42.463,13.841c14.882,0,29.771-4.614,42.473-13.841
			l28.279-20.549c0.142-0.1,0.286-0.197,0.422-0.306l13.512-9.819c11.479,3.669,22.208,5.515,32.138,5.513
			c13.438,0,25.42-3.359,35.829-10.07c31.987-20.622,36.179-65.089,36.342-66.972C459.38,252.178,456.38,248.289,452.104,247.553z
			 M367.332,33.868l-25.451,64.281c-46.648-16.445-97.085-16.445-143.732,0l-25.452-64.281
			C235.774,10.974,304.257,10.974,367.332,33.868z M191.752,312.056c-0.009-0.007-0.018-0.012-0.027-0.019l-0.053-0.039
			c-21.654-15.727-33.506-42.048-30.931-68.692l0.582-6.021l30.345,18.297c0.085,19.289,0.891,38.769,2.422,58.173L191.752,312.056z
			 M302.672,345.197c-19.539,14.19-45.785,14.191-65.313,0.001l-2.061-1.498c11.556,0.992,23.134,1.496,34.712,1.496
			c11.581,0,23.164-0.505,34.724-1.497L302.672,345.197z M328.286,324.121c-38.704,5.84-77.848,5.84-116.553,0
			c-1.974-20.961-3.095-42.088-3.342-63.01c40.518,7.689,82.72,7.689,123.237,0C331.381,282.033,330.26,303.16,328.286,324.121z
			 M336.93,242.975c-19.695,4.314-39.872,6.684-60.102,7.121c0.96-1.36,1.529-3.015,1.529-4.806v-24.485
			c0-4.61-3.737-8.347-8.347-8.347s-8.347,3.737-8.347,8.347v24.485c0,1.791,0.569,3.447,1.529,4.806
			c-20.23-0.435-40.408-2.806-60.102-7.121l-39.987-24.111l0.942-9.742c1.613,0.037,3.204,0.055,4.789,0.055
			c47.42-0.002,82.039-16.145,103.314-30.355c15.133-10.109,25.638-20.511,31.737-27.384c4.091,3.859,9.853,8.605,16.991,12.742
			c16.696,9.675,34.302,12.278,51.504,7.724l4.537,46.961L336.93,242.975z M348.356,311.999l-2.428,1.765
			c1.531-19.406,2.339-38.889,2.424-58.182l30.344-18.297l0.581,6.022C381.852,269.949,370.004,296.269,348.356,311.999z
			 M413.552,309.484c-11.444,7.35-25.962,9.155-43.259,5.455c18.593-19.295,28.223-46.128,25.603-73.237l-7.924-82.001
			c-0.258-2.67-1.784-5.054-4.101-6.406c-2.317-1.353-5.142-1.508-7.595-0.421c-37.316,16.565-65.153-17.784-66.305-19.236
			c-1.638-2.088-4.187-3.272-6.821-3.191c-2.652,0.081-5.107,1.417-6.614,3.6c-0.441,0.638-45.162,63.748-139.538,58.079
			c-4.495-0.278-8.377,3.057-8.81,7.529l-4.062,42.046c-2.621,27.113,7.013,53.945,25.61,73.239
			c-17.297,3.699-31.812,1.894-43.255-5.455c-11.936-7.665-19.03-20.264-23.191-31.41c1.51,0.257,3.044,0.388,4.584,0.388
			c14.298,0,26.062-10.74,27.366-24.981l8.269-90.259c2.558-27.904,14.166-53.925,32.998-74.394l9.138,23.08
			c1.298,3.278,4.44,5.276,7.763,5.276c1.023,0,2.062-0.189,3.071-0.589c47.422-18.776,99.655-18.778,147.081,0
			c2.057,0.815,4.356,0.779,6.387-0.1c2.032-0.879,3.632-2.53,4.446-4.588l9.139-23.082c18.829,20.431,30.433,46.432,32.993,74.397
			l8.27,90.266c0.633,6.847,3.773,13.164,8.841,17.786c5.083,4.635,11.661,7.187,18.524,7.187c1.555,0,3.086-0.13,4.582-0.383
			C432.579,289.225,425.484,301.82,413.552,309.484z"/>
	</g>
</g>
<g>
	<g>
		<path d="M287.266,43.076h-8.904v-8.904c0-4.61-3.737-8.347-8.347-8.347s-8.347,3.737-8.347,8.347v8.904h-8.904
			c-4.61,0-8.347,3.737-8.347,8.347s3.736,8.347,8.347,8.347h8.904v8.904c0,4.61,3.737,8.347,8.347,8.347s8.347-3.737,8.347-8.347
			v-8.904h8.904c4.61,0,8.347-3.737,8.347-8.347S291.876,43.076,287.266,43.076z"/>
	</g>
</g>
<g>
	<g>
		<path d="M355.712,429.823h-43.405c-4.611,0-8.347,3.737-8.347,8.347c0,4.61,3.737,8.347,8.347,8.347h43.405
			c4.61,0,8.347-3.737,8.347-8.347C364.059,433.56,360.322,429.823,355.712,429.823z"/>
	</g>
</g>
<g>
	<g>
		<path d="M106.469,192.347h-76.69v-90.705c0-4.61-3.737-8.347-8.347-8.347s-8.347,3.737-8.347,8.347v99.052
			c0,4.61,3.737,8.347,8.347,8.347h85.037c4.61,0,8.347-3.737,8.347-8.347C114.816,196.085,111.079,192.347,106.469,192.347z"/>
	</g>
</g>
<g>
	<g>
		<path d="M144.252,39.181H21.431c-4.61,0-8.347,3.737-8.347,8.347v26.291c0,4.61,3.737,8.347,8.347,8.347s8.347-3.737,8.347-8.347
			V55.875h106.127v23.873c0,4.61,3.737,8.347,8.347,8.347c4.61,0,8.347-3.737,8.347-8.347v-32.22
			C152.599,42.918,148.862,39.181,144.252,39.181z"/>
	</g>
</g>
<g>
	<g>
		<path d="M99.001,79.619c-3.058,0-6.067,0.556-8.945,1.656c-4.84,1.849-10.39,1.848-15.231,0c-2.877-1.098-5.886-1.655-8.945-1.655
			c-15.509,0-28.125,14.453-28.125,32.218c0,5.772,1.341,11.432,3.879,16.37c3.803,7.403,6.476,15.745,7.945,24.799l0.078,0.481
			c1.127,6.848,6.517,11.843,13.412,12.428c0.446,0.038,0.889,0.057,1.329,0.057c6.358,0,11.891-3.915,14.015-10.062
			c1.61-4.66,3.005-7.535,4.026-9.271c1.022,1.736,2.415,4.611,4.027,9.271c2.271,6.572,8.436,10.591,15.345,10.005
			c6.895-0.586,12.285-5.581,13.409-12.413l0.082-0.504c1.469-9.048,4.142-17.389,7.945-24.792c2.538-4.938,3.879-10.6,3.879-16.37
			C127.126,94.072,114.509,79.619,99.001,79.619z M108.4,120.578c-3.752,7.302-6.585,15.297-8.453,23.849
			c-3.509-8.236-8.875-16.463-17.505-16.463c-8.632,0-13.996,8.227-17.504,16.463c-1.866-8.544-4.7-16.544-8.454-23.848
			c-1.33-2.589-2.033-5.611-2.033-8.741c0-8.415,5.235-15.524,11.431-15.524c1.015,0,2.021,0.187,2.989,0.558
			c8.751,3.341,18.388,3.341,27.14,0c0.968-0.371,1.974-0.558,2.989-0.558c6.197,0,11.431,7.109,11.431,15.524
			C110.432,114.967,109.73,117.99,108.4,120.578z"/>
	</g>
</g>
<g>
	<g>
		<path d="M490.57,359.01h-13.355v-11.408c0-4.61-3.737-8.347-8.347-8.347h-39.509c-4.61,0-8.347,3.737-8.347,8.347v147.705h-2.782
			c-4.61,0-8.347,3.737-8.347,8.347s3.737,8.347,8.347,8.347h11.129c4.61,0,8.347-3.737,8.347-8.347v-21.943h0.773
			c13.075,0,23.711-10.636,23.711-23.711v-62.542h6.678c4.61,0,8.347-3.737,8.347-8.347v-11.408h13.355
			c4.61,0,8.347-3.737,8.347-8.347S495.18,359.01,490.57,359.01z M445.496,458c0,3.87-3.147,7.017-7.017,7.017h-0.773v-69.559h7.791
			V458z M460.521,378.765h-6.678h-16.138v-22.815h22.815V378.765z"/>
	</g>
</g>
<g>
	<g>
		<path d="M124.413,448.323H52.011c-10.092,0-18.302-8.21-18.302-18.302c0-4.023,3.272-7.295,7.295-7.295h83.409
			c4.61,0,8.347-3.737,8.347-8.347c0-4.61-3.737-8.347-8.347-8.347H41.004c-13.227,0-23.989,10.761-23.989,23.989
			c0,19.297,15.699,34.996,34.996,34.996h72.402c4.61,0,8.347-3.737,8.347-8.347S129.023,448.323,124.413,448.323z"/>
	</g>
</g>
</svg>